<?xml version="1.0" encoding="UTF-8"?>
<svg version="1.1" xmlns="http://www.w3.org/2000/svg" width="200" height="200">
<path d="M0 0 C66 0 132 0 200 0 C200 66 200 132 200 200 C134 200 68 200 0 200 C0 134 0 68 0 0 Z " fill="#000000" transform="translate(0,0)"/>
<path d="M0 0 C5.91704946 4.28986086 10.73738935 9.19772787 11.95703125 16.578125 C12.38743542 24.38545645 10.50594871 29.80763182 5.5 35.8125 C-0.12353348 40.89660581 -5.98681649 41.16676674 -13.26953125 41.0859375 C-19.38093912 40.56864784 -22.73123586 37.84681573 -26.8125 33.375 C-30.91320731 28.19170596 -31.98057544 23.95321365 -31.8046875 17.3671875 C-30.93175364 10.0479728 -26.86921346 5.76659733 -21.40234375 1.16015625 C-15.65103777 -2.91417755 -6.37836 -2.16408643 0 0 Z " fill="#D1D1D1" transform="translate(75.5,80.1875)"/>
<path d="M0 0 C3.88723555 3.39290502 6.59152541 6.47502819 7.9375 11.5 C7.958125 12.325 7.97875 13.15 8 14 C6.80375 14.268125 5.6075 14.53625 4.375 14.8125 C1.44781168 15.51977478 -0.49140816 16.26979272 -3.1875 17.75 C-6 19 -6 19 -8.25 18.1875 C-9.1575 17.795625 -10.065 17.40375 -11 17 C-18.14720474 16.18171538 -24.29315958 17.6026613 -31 20 C-31.64075992 13.84870478 -31.02667408 9.81595382 -27.421875 4.72265625 C-20.43068164 -3.7474434 -9.45573407 -5.56981596 0 0 Z " fill="#060606" transform="translate(77,83)"/>
<path d="M0 0 C2.64 0 5.28 0 8 0 C8 1.32 8 2.64 8 4 C6.35 3.67 4.7 3.34 3 3 C3 3.99 3 4.98 3 6 C4.98 6 6.96 6 9 6 C9.33 4.02 9.66 2.04 10 0 C11.98 0 13.96 0 16 0 C16.33 2.31 16.66 4.62 17 7 C17.33 4.69 17.66 2.38 18 0 C22.62 0 27.24 0 32 0 C32 0.99 32 1.98 32 3 C31.34 3 30.68 3 30 3 C30 3.75925781 30 4.51851563 30 5.30078125 C30 17.375 30 17.375 29 21 C27.35 20.67 25.7 20.34 24 20 C24 20.66 24 21.32 24 22 C23.2575 21.814375 22.515 21.62875 21.75 21.4375 C19.05009037 21.00796892 17.55368923 21.14877026 15 22 C14.34 21.01 13.68 20.02 13 19 C12.34 19.99 11.68 20.98 11 22 C7.875 22.1875 7.875 22.1875 5 22 C3.875 16.25 3.875 16.25 5 14 C3.35 14 1.7 14 0 14 C0 12.35 0 10.7 0 9 C0.99 9 1.98 9 3 9 C3 9.66 3 10.32 3 11 C3.66 11 4.32 11 5 11 C5 10.01 5 9.02 5 8 C3.35 8 1.7 8 0 8 C0 5.36 0 2.72 0 0 Z " fill="#050505" transform="translate(125,91)"/>
<path d="M0 0 C3.63 0 7.26 0 11 0 C11 1.98 11 3.96 11 6 C11.66 6 12.32 6 13 6 C13 4.02 13 2.04 13 0 C16.63 0 20.26 0 24 0 C24 0.99 24 1.98 24 3 C23.01 3 22.02 3 21 3 C21 3.99 21 4.98 21 6 C21.99 6 22.98 6 24 6 C24 6.66 24 7.32 24 8 C23.01 8 22.02 8 21 8 C21 8.99 21 9.98 21 11 C21.99 11 22.98 11 24 11 C24 11.99 24 12.98 24 14 C23.01 14.33 22.02 14.66 21 15 C21.33 15.33 21.66 15.66 22 16 C22.04080783 17.99958364 22.04254356 20.00045254 22 22 C21.34 22 20.68 22 20 22 C19.67 21.34 19.34 20.68 19 20 C18.67 20.66 18.34 21.32 18 22 C16.35 22 14.7 22 13 22 C13 20.02 13 18.04 13 16 C13.66 15.67 14.32 15.34 15 15 C13.783125 14.855625 12.56625 14.71125 11.3125 14.5625 C8.14358879 14.18652748 5.15122255 13.63024451 2 13 C2 9.37 2 5.74 2 2 C1.34 2 0.68 2 0 2 C0 1.34 0 0.68 0 0 Z " fill="#3F3F3F" transform="translate(96,91)"/>
<path d="M0 0 C2.64 0 5.28 0 8 0 C8 1.32 8 2.64 8 4 C6.35 3.67 4.7 3.34 3 3 C3 3.99 3 4.98 3 6 C4.98 6 6.96 6 9 6 C9.33 4.02 9.66 2.04 10 0 C11.98 0 13.96 0 16 0 C16.33 2.31 16.66 4.62 17 7 C17.33 4.69 17.66 2.38 18 0 C19.32 0 20.64 0 22 0 C22 3.63 22 7.26 22 11 C22.66 11 23.32 11 24 11 C24 11.66 24 12.32 24 13 C20.7 13 17.4 13 14 13 C14 12.34 14 11.68 14 11 C13.34 11 12.68 11 12 11 C12 11.66 12 12.32 12 13 C8.04 13 4.08 13 0 13 C0 11.68 0 10.36 0 9 C0.99 9 1.98 9 3 9 C3 9.66 3 10.32 3 11 C3.66 11 4.32 11 5 11 C5 10.01 5 9.02 5 8 C3.35 8 1.7 8 0 8 C0 5.36 0 2.72 0 0 Z " fill="#F8F8F8" transform="translate(125,91)"/>
<path d="M0 0 C0.33 0 0.66 0 1 0 C1.82861135 7.45750211 -0.41422834 12.12480501 -5 18 C-10.58751859 23.10514288 -16.50425977 23.33752722 -23.7578125 23.2890625 C-29.36306664 22.78931695 -33.33402207 20.31291521 -37 16 C-36.67 15.34 -36.34 14.68 -36 14 C-35.46375 14.680625 -34.9275 15.36125 -34.375 16.0625 C-32.14762368 18.2963094 -32.14762368 18.2963094 -29.1875 18 C-25.86370634 17.11305992 -25.86370634 17.11305992 -22.8125 14.9375 C-17.70265114 11.78946811 -11.37370457 12.24840417 -5.66796875 13.51953125 C-5.11753906 13.67808594 -4.56710938 13.83664063 -4 14 C-4 12.35 -4 10.7 -4 9 C-3.01 9 -2.02 9 -1 9 C-0.67 6.03 -0.34 3.06 0 0 Z " fill="#D9D9D9" transform="translate(86,98)"/>
<path d="M0 0 C0.75023438 0.30421875 1.50046875 0.6084375 2.2734375 0.921875 C3.02882813 1.21578125 3.78421875 1.5096875 4.5625 1.8125 C5.25085938 2.09609375 5.93921875 2.3796875 6.6484375 2.671875 C8.1334375 3.166875 8.1334375 3.166875 9.6484375 3.671875 C9.3184375 4.991875 8.9884375 6.311875 8.6484375 7.671875 C7.67003906 7.61386719 6.69164063 7.55585937 5.68359375 7.49609375 C-1.67504055 7.24284675 -7.26526055 7.11395247 -13.421875 11.67578125 C-15.3515625 12.671875 -15.3515625 12.671875 -17.84375 12.63671875 C-21.11880366 11.37669032 -22.38357842 9.51451868 -24.3515625 6.671875 C-23.18238281 6.41792969 -22.01320312 6.16398437 -20.80859375 5.90234375 C-19.26031213 5.55515333 -17.71214075 5.20747109 -16.1640625 4.859375 C-15.39513672 4.69373047 -14.62621094 4.52808594 -13.83398438 4.35742188 C-10.32796065 3.55991433 -7.67431221 2.87228112 -4.58984375 0.95703125 C-2.3515625 -0.328125 -2.3515625 -0.328125 0 0 Z " fill="#0E0E0E" transform="translate(73.3515625,104.328125)"/>
<path d="M0 0 C0.66 0 1.32 0 2 0 C2 0.66 2 1.32 2 2 C5.3 2 8.6 2 12 2 C12.33 1.34 12.66 0.68 13 0 C13 0.99 13 1.98 13 3 C10.69 3.33 8.38 3.66 6 4 C6.33 4.33 6.66 4.66 7 5 C7.04063832 6.66617115 7.042721 8.33388095 7 10 C5.68 10.33 4.36 10.66 3 11 C2.34 10.01 1.68 9.02 1 8 C0.01 9.485 0.01 9.485 -1 11 C-4.125 11.1875 -4.125 11.1875 -7 11 C-8.125 5.25 -8.125 5.25 -7 3 C-8.65 3 -10.3 3 -12 3 C-12 2.67 -12 2.34 -12 2 C-8.04 2 -4.08 2 0 2 C0 1.34 0 0.68 0 0 Z " fill="#252525" transform="translate(137,102)"/>
<path d="M0 0 C-1 3 -1 3 -3.1875 4.16796875 C-9.42880694 6.43044252 -14.36503019 7.43507999 -21 7 C-21.33 5.35 -21.66 3.7 -22 2 C-15.58147748 -0.96239501 -6.70839336 -3.35419668 0 0 Z " fill="#0A0A0A" transform="translate(69,102)"/>
<path d="M0 0 C1.63001953 0.01353516 1.63001953 0.01353516 3.29296875 0.02734375 C4.12441406 0.03894531 4.95585938 0.05054687 5.8125 0.0625 C4.43469379 3.28403722 3.95319094 3.98210518 0.75 5.8125 C-3.42432596 7.4173354 -7.77034799 7.75521019 -12.1875 7.0625 C-12.8475 6.4025 -13.5075 5.7425 -14.1875 5.0625 C-9.27583303 0.94731956 -6.3766432 -0.06856606 0 0 Z " fill="#101010" transform="translate(73.1875,112.9375)"/>
<path d="M0 0 C0.99 0 1.98 0 3 0 C3 1.98 3 3.96 3 6 C3.66 6 4.32 6 5 6 C5 4.02 5 2.04 5 0 C5.99 0 6.98 0 8 0 C8 4.29 8 8.58 8 13 C7.01 13 6.02 13 5 13 C5 11.35 5 9.7 5 8 C4.34 8 3.68 8 3 8 C3 9.65 3 11.3 3 13 C2.01 13 1.02 13 0 13 C0 8.71 0 4.42 0 0 Z " fill="#FAFAFA" transform="translate(104,91)"/>
<path d="M0 0 C2.31 0 4.62 0 7 0 C7 0.99 7 1.98 7 3 C6.01 3 5.02 3 4 3 C4 3.99 4 4.98 4 6 C4.99 6 5.98 6 7 6 C7 6.66 7 7.32 7 8 C6.01 8 5.02 8 4 8 C4 8.99 4 9.98 4 11 C4.99 11 5.98 11 7 11 C7 11.99 7 12.98 7 14 C4.69 14 2.38 14 0 14 C0 9.38 0 4.76 0 0 Z " fill="#CFCFCF" transform="translate(113,91)"/>
<path d="M0 0 C4.48373424 3.25070733 8.10466812 6.76969603 10.5 11.8125 C10.6875 14.625 10.6875 14.625 10.5 16.8125 C10.2525 16.27625 10.005 15.74 9.75 15.1875 C6.48577862 8.98547937 3.17352785 4.40968602 -3.375 1.5625 C-10.03224885 -0.03523972 -15.48631592 0.70239268 -21.5 3.8125 C-23.66975341 5.36034956 -25.53658318 6.99633944 -27.5 8.8125 C-25.93989422 4.60021439 -23.0154607 2.46703155 -19.5 -0.1875 C-13.37803674 -2.22815442 -6.08048572 -2.06302194 0 0 Z " fill="#DDDDDD" transform="translate(75.5,80.1875)"/>
<path d="M0 0 C2.64 0 5.28 0 8 0 C8 0.99 8 1.98 8 3 C7.34 3 6.68 3 6 3 C6 6.63 6 10.26 6 14 C4.68 14 3.36 14 2 14 C2 10.37 2 6.74 2 3 C1.34 3 0.68 3 0 3 C0 2.01 0 1.02 0 0 Z " fill="#D9D9D9" transform="translate(149,91)"/>
<path d="M0 0 C0 2.64 0 5.28 0 8 C-3.8063457 7.32829194 -7.35206816 6.27253436 -11 5 C-11 4.34 -11 3.68 -11 3 C-7.28026121 0.15549386 -4.62609198 -0.3227506 0 0 Z " fill="#0E0E0E" transform="translate(85,99)"/>
<path d="M0 0 C1.32 0 2.64 0 4 0 C4 3.63 4 7.26 4 11 C4.66 11 5.32 11 6 11 C6 11.66 6 12.32 6 13 C3.69 13 1.38 13 -1 13 C-0.67 8.71 -0.34 4.42 0 0 Z " fill="#E5E5E5" transform="translate(143,91)"/>
<path d="M0 0 C1.10844919 3.32534757 0.84454356 5.62182575 0 9 C-0.33 7.68 -0.66 6.36 -1 5 C-2.258125 5.309375 -3.51625 5.61875 -4.8125 5.9375 C-5.87404297 6.19853516 -5.87404297 6.19853516 -6.95703125 6.46484375 C-8.65683202 6.91010705 -10.33301954 7.44433985 -12 8 C-12 8.66 -12 9.32 -12 10 C-10.576875 10.2165625 -10.576875 10.2165625 -9.125 10.4375 C-6 11 -6 11 -4 12 C-4 12.66 -4 13.32 -4 14 C-5.48484412 13.60404157 -6.9628831 13.18249294 -8.4375 12.75 C-9.67306641 12.40195313 -9.67306641 12.40195313 -10.93359375 12.046875 C-13 11 -13 11 -13.78515625 8.890625 C-13.85605469 8.26671875 -13.92695312 7.6428125 -14 7 C-9.02495953 3.75099398 -6.11774896 2.50059192 0 3 C0 2.01 0 1.02 0 0 Z " fill="#C5C5C5" transform="translate(86,94)"/>
<path d="M0 0 C1.65 0 3.3 0 5 0 C5.33 4.29 5.66 8.58 6 13 C5.01 13 4.02 13 3 13 C2.01879536 9.94736336 2.01879536 8.05263664 3 5 C2.01 4.67 1.02 4.34 0 4 C0 2.68 0 1.36 0 0 Z " fill="#F9F9F9" transform="translate(136,91)"/>
<path d="M0 0 C2.31 0 4.62 0 7 0 C7 0.66 7 1.32 7 2 C6.34 2 5.68 2 5 2 C5 5.63 5 9.26 5 13 C4.01 13 3.02 13 2 13 C2 9.37 2 5.74 2 2 C1.34 2 0.68 2 0 2 C0 1.34 0 0.68 0 0 Z " fill="#FAFAFA" transform="translate(96,91)"/>
<path d="M0 0 C0.99 0.33 1.98 0.66 3 1 C3 3 3 5 3 7 C0.03 7 -2.94 7 -6 7 C-5.67 5.35 -5.34 3.7 -5 2 C-4.34 2.33 -3.68 2.66 -3 3 C-2.01 2.01 -1.02 1.02 0 0 Z " fill="#404040" transform="translate(104,106)"/>
<path d="M0 0 C0.66 1.32 1.32 2.64 2 4 C2.66 4.33 3.32 4.66 4 5 C4 6.98 4 8.96 4 11 C3.34 11 2.68 11 2 11 C2 11.66 2 12.32 2 13 C0.35 13 -1.3 13 -3 13 C-2.01 8.71 -1.02 4.42 0 0 Z " fill="#D2D2D2" transform="translate(135,91)"/>
<path d="M0 0 C2.64 0 5.28 0 8 0 C8 1.32 8 2.64 8 4 C6.35 3.67 4.7 3.34 3 3 C3 3.99 3 4.98 3 6 C2.01 6 1.02 6 0 6 C0 4.02 0 2.04 0 0 Z " fill="#EBEBEB" transform="translate(125,91)"/>
<path d="M0 0 C0.99 0.33 1.98 0.66 3 1 C3 1.99 3 2.98 3 4 C4.65 3.67 6.3 3.34 8 3 C7.67 3.99 7.34 4.98 7 6 C5.35 5.67 3.7 5.34 2 5 C2 5.66 2 6.32 2 7 C1.01 7 0.02 7 -1 7 C-0.67 4.69 -0.34 2.38 0 0 Z " fill="#575757" transform="translate(147,106)"/>
<path d="M0 0 C2.78637633 4.1795645 1.79562512 6.14668677 1 11 C0.67 11 0.34 11 0 11 C0 9.35 0 7.7 0 6 C-1.65 6 -3.3 6 -5 6 C-5 5.01 -5 4.02 -5 3 C-2.525 3.495 -2.525 3.495 0 4 C0 2.68 0 1.36 0 0 Z " fill="#4C4C4C" transform="translate(133,91)"/>
<path d="M0 0 C1.32 0 2.64 0 4 0 C4 1.65 4 3.3 4 5 C2.68 5.33 1.36 5.66 0 6 C0 4.02 0 2.04 0 0 Z " fill="#505050" transform="translate(140,107)"/>
<path d="M0 0 C0.66 0.33 1.32 0.66 2 1 C2 1.99 2 2.98 2 4 C2.66 4 3.32 4 4 4 C4 3.01 4 2.02 4 1 C4.66 1 5.32 1 6 1 C5.67 2.32 5.34 3.64 5 5 C3.02 5 1.04 5 -1 5 C-0.67 3.35 -0.34 1.7 0 0 Z " fill="#606060" transform="translate(131,108)"/>
<path d="M0 0 C1.65 0 3.3 0 5 0 C4.34 1.65 3.68 3.3 3 5 C2.01 4.67 1.02 4.34 0 4 C0 2.68 0 1.36 0 0 Z " fill="#F2F2F2" transform="translate(136,91)"/>
<path d="M0 0 C1.32 0 2.64 0 4 0 C4.33 1.32 4.66 2.64 5 4 C3.35 4.33 1.7 4.66 0 5 C-0.33 4.01 -0.66 3.02 -1 2 C-0.67 1.34 -0.34 0.68 0 0 Z " fill="#0A0A0A" transform="translate(150,105)"/>
<path d="M0 0 C0.99 0.495 0.99 0.495 2 1 C2 1.66 2 2.32 2 3 C3.32 3 4.64 3 6 3 C6 3.66 6 4.32 6 5 C4.02 5 2.04 5 0 5 C0 3.35 0 1.7 0 0 Z " fill="#F8F8F8" transform="translate(114,99)"/>
<path d="M0 0 C0.99 0.99 1.98 1.98 3 3 C2.67 3.66 2.34 4.32 2 5 C0.35 4.67 -1.3 4.34 -3 4 C-3 3.34 -3 2.68 -3 2 C-2.01 1.34 -1.02 0.68 0 0 Z " fill="#181818" transform="translate(77,100)"/>
<path d="M0 0 C1.2065625 0.0309375 1.2065625 0.0309375 2.4375 0.0625 C2.4375 1.3825 2.4375 2.7025 2.4375 4.0625 C1.4475 4.0625 0.4575 4.0625 -0.5625 4.0625 C-0.5625 3.4025 -0.5625 2.7425 -0.5625 2.0625 C-1.5525 1.7325 -2.5425 1.4025 -3.5625 1.0625 C-2.5625 0.0625 -2.5625 0.0625 0 0 Z " fill="#F8F8F8" transform="translate(130.5625,90.9375)"/>
</svg>
